<svg xmlns="http://www.w3.org/2000/svg" width="68.411" height="68.419" viewBox="0 0 68.411 68.419">
  <g id="search" transform="translate(-1.25 -1.25)">
    <g id="Group_1" data-name="Group 1" transform="translate(39.437 10.797)">
      <path id="Path_5" data-name="Path 5" d="M34.73,9.023H15.637a2.387,2.387,0,1,1,0-4.773H34.73a2.387,2.387,0,1,1,0,4.773ZM25.183,18.57H15.637a2.387,2.387,0,0,1,0-4.773h9.547a2.387,2.387,0,0,1,0,4.773ZM41.095,63.122a2.36,2.36,0,0,1-1.687-.7l-6.365-6.365a2.385,2.385,0,1,1,3.373-3.373l6.365,6.365a2.4,2.4,0,0,1,0,3.373,2.36,2.36,0,0,1-1.687.7Z" transform="translate(-13.25 -4.25)" fill="#fff"/>
    </g>
    <path id="Path_6" data-name="Path 6" d="M33.868,66.486a32.618,32.618,0,1,1,0-65.236,2.387,2.387,0,1,1,0,4.773A27.845,27.845,0,1,0,61.713,33.868a2.387,2.387,0,1,1,4.773,0A32.663,32.663,0,0,1,33.868,66.486Z" transform="translate(0 0)" fill="#fff"/>
  </g>
</svg>
