<svg xmlns="http://www.w3.org/2000/svg" width="27.611" height="28" viewBox="0 0 27.611 28">
  <path id="Path_3" data-name="Path 3" d="M23.8,30H8.2a6.018,6.018,0,0,1-6-6v-.2l.6-16A5.976,5.976,0,0,1,8.8,2H23.2a5.976,5.976,0,0,1,6,5.8l.6,16a5.787,5.787,0,0,1-1.6,4.3A5.7,5.7,0,0,1,24,30ZM8.8,4a3.974,3.974,0,0,0-4,3.8L4.2,24a4.012,4.012,0,0,0,4,4H24a3.721,3.721,0,0,0,2.8-1.3,4.357,4.357,0,0,0,1.1-2.9l-.6-16a3.906,3.906,0,0,0-4-3.8Z" transform="translate(-2.2 -2)" fill="#30d5c8"/>
  <path id="Path_4" data-name="Path 4" d="M16,14A6.957,6.957,0,0,1,9,7a.945.945,0,0,1,1-1,.945.945,0,0,1,1,1A5,5,0,0,0,21,7a1,1,0,0,1,2,0A6.957,6.957,0,0,1,16,14Z" transform="translate(-2.2 -2)" fill="#30d5c8"/>
</svg>
