<svg xmlns="http://www.w3.org/2000/svg" width="56.925" height="82.02" viewBox="0 0 56.925 82.02">
  <g id="anatomi" transform="translate(-78.25)">
    <path id="Path_17480" data-name="Path 17480" d="M138.25,331.5h2.405v28.863H138.25Zm35.277,11.225h2.405v17.639h-2.405Zm0-11.225h2.405v8.819h-2.405Z" transform="translate(-50.379 -278.343)" fill="#30d5c8"/>
    <path id="Path_17481" data-name="Path 17481" d="M101.982,28.075H99.5a2.655,2.655,0,0,1-2.66-2.437l-.469-5.344-3.3-.744a.091.091,0,0,1-.07-.087.084.084,0,0,1,.009-.037l3.056-6.539v-.267c0-5.633,4.887-10.215,10.894-10.215A11.227,11.227,0,0,1,113.79,4.66l1.45-1.919A13.614,13.614,0,0,0,106.962,0c-7.237,0-13.143,5.514-13.3,12.347l-2.833,6.062A2.492,2.492,0,0,0,92.543,21.9l1.588.358.315,3.594A5.048,5.048,0,0,0,99.5,30.48h.075v3.95l-14.453,3.8a9.226,9.226,0,0,0-6.874,8.917V69.043h2.405V47.151a6.82,6.82,0,0,1,5.081-6.591l16.246-4.275ZM128.3,38.234l-14.453-3.8V28.594l2.707-3.458a16.834,16.834,0,0,0,3.707-10.458V12.621a12.251,12.251,0,0,0-3.084-8.082l-1.806,1.588a9.847,9.847,0,0,1,2.485,6.494v2.057a14.43,14.43,0,0,1-3.188,8.966l-3.226,4.12v8.521l16.246,4.275a6.82,6.82,0,0,1,5.081,6.591v.394h2.405v-.394A9.226,9.226,0,0,0,128.3,38.234ZM132.77,49.95h2.405V82.02H132.77Zm-54.52,21.5h2.405V82.02H78.25Z" transform="translate(0 0)" fill="#58c5c7"/>
    <path id="Path_17482" data-name="Path 17482" d="M194.254,42.654c2.735-.082,7.216-.651,7.216-4.609,0-3.621-3.885-8.044-8.418-8.044s-8.418,4.423-8.418,8.044c0,3.958,4.481,4.527,7.216,4.609v25.7a24.935,24.935,0,0,0-7.622,1.605l.852,2.249a22.548,22.548,0,0,1,6.769-1.445v5.945a19.477,19.477,0,0,0-10.771,4.384l1.5,1.882a17.085,17.085,0,0,1,9.273-3.866v5.639a13.809,13.809,0,0,0-7.6,3.429L185.817,90a11.5,11.5,0,0,1,6.032-2.835V92.79a8.913,8.913,0,0,0-4.391,2.121l1.566,1.826a6.726,6.726,0,0,1,2.825-1.5v4.761h2.405V95.233a6.726,6.726,0,0,1,2.825,1.5l1.566-1.826a8.912,8.912,0,0,0-4.391-2.121V87.168A11.5,11.5,0,0,1,200.286,90l1.566-1.826a13.809,13.809,0,0,0-7.6-3.429V79.108a17.085,17.085,0,0,1,9.273,3.866l1.5-1.882a19.476,19.476,0,0,0-10.771-4.384V70.764a23.826,23.826,0,0,1,12.53,4.552l1.4-1.957a26.189,26.189,0,0,0-13.928-5v-25.7Zm-1.2-2.391c-6.013,0-6.013-1.554-6.013-2.218,0-2.227,2.694-5.639,6.013-5.639s6.013,3.412,6.013,5.639C199.065,38.708,199.065,40.263,193.052,40.263Z" transform="translate(-86.339 -25.189)" fill="#e8cf75"/>
    <path id="Path_17483" data-name="Path 17483" d="M165.387,285.454a28.619,28.619,0,0,0-4,2.4l1.4,1.957a26.181,26.181,0,0,1,3.661-2.195Zm9.93,31.436h2.405V319.3h-2.405Z" transform="translate(-69.808 -239.681)" fill="#30d5c8"/>
  </g>
</svg>
