<svg xmlns="http://www.w3.org/2000/svg" width="81.955" height="77.865" viewBox="0 0 81.955 77.865">
  <g id="eye" transform="translate(-0.005 0)">
    <g id="Group_3" data-name="Group 3" transform="translate(0.005 0)">
      <path id="Path_14620" data-name="Path 14620" d="M40.249,0A53.6,53.6,0,0,0,2.355,15.473a1.366,1.366,0,1,0,2.02,1.839,51.425,51.425,0,0,1,71.746,0,1.366,1.366,0,1,0,2.02-1.839A53.6,53.6,0,0,0,40.249,0Zm-8.2,34.151a8.2,8.2,0,1,0,8.2-8.2,8.2,8.2,0,0,0-8.2,8.2Zm13.66,0a5.464,5.464,0,1,1-5.464-5.464A5.464,5.464,0,0,1,45.713,34.151Z" transform="translate(0.725 0)" fill="#e8cf75"/>
      <path id="Path_14621" data-name="Path 14621" d="M81.96,32.281a4.079,4.079,0,0,0-.847-2.459C76.605,24,60.409,5,40.979,5S5.353,24,.853,29.829a4.071,4.071,0,0,0-.848,2.459v.04c0,.012.007.022.007.034A4.066,4.066,0,0,0,.859,34.82c3.018,3.9,11.3,13.726,22.276,19.781q-2.469-.729-4.863-1.686a1.367,1.367,0,0,0-1.016,2.538,60.4,60.4,0,0,0,23.724,4.187,60.4,60.4,0,0,0,23.731-4.2,1.367,1.367,0,0,0-1.016-2.538q-2.391.956-4.863,1.686C69.81,48.538,78.091,38.716,81.1,34.812a4.06,4.06,0,0,0,.848-2.459c0-.012.007-.022.007-.034v-.038ZM40.979,7.732c13.144,0,24.862,9.5,31.986,16.877a65.455,65.455,0,0,0-20.729-7.631.1.1,0,0,1-.052-.01,60.813,60.813,0,0,0-22.4,0,.105.105,0,0,0-.053.01A65.441,65.441,0,0,0,8.993,24.609C16.117,17.236,27.835,7.732,40.979,7.732ZM57.371,32.321A16.392,16.392,0,1,1,30.679,19.588a57.646,57.646,0,0,1,20.6,0A16.294,16.294,0,0,1,57.371,32.321Zm-54.6.254a15.944,15.944,0,0,1,2.779-2.459c-.055.8-.089,1.575-.089,2.2a26.228,26.228,0,0,0,.41,4.3q-1.474-1.7-2.854-3.475a1.325,1.325,0,0,1-.246-.567ZM40.979,56.909c-12.768,0-24.191-8.965-31.36-16.238a32.238,32.238,0,0,1-1.425-8.351,39.494,39.494,0,0,1,.28-4.194,63.383,63.383,0,0,1,17.37-7.474,19.124,19.124,0,1,0,30.268,0,63.383,63.383,0,0,1,17.377,7.474,39.872,39.872,0,0,1,.273,4.194,32.238,32.238,0,0,1-1.425,8.351C65.171,47.944,53.747,56.909,40.979,56.909ZM76.086,36.617a26.228,26.228,0,0,0,.41-4.3c0-.63-.034-1.4-.089-2.2a16.023,16.023,0,0,1,2.779,2.459,1.335,1.335,0,0,1-.242.567c-.683.88-1.646,2.08-2.858,3.472Zm-34.5,25.9a1.366,1.366,0,0,0-1.833.612l-2.732,5.464a1.366,1.366,0,0,0,1.223,1.977H41.5l-1.744,3.487A1.367,1.367,0,0,0,42.2,75.278l2.732-5.464a1.366,1.366,0,0,0-1.223-1.977H40.457l1.751-3.487a1.366,1.366,0,0,0-.619-1.833ZM10.324,63.1a1.366,1.366,0,0,0,.534-2.262l-2.3-2.3,3.7-1.229a1.368,1.368,0,1,0-.865-2.6L5.6,56.648a1.366,1.366,0,0,0-.534,2.261l2.3,2.3-3.7,1.229a1.368,1.368,0,0,0,.863,2.6Zm67.969-.661-3.7-1.229,2.3-2.3a1.366,1.366,0,0,0-.534-2.261l-5.795-1.927a1.368,1.368,0,0,0-.865,2.6l3.7,1.229-2.3,2.294a1.366,1.366,0,0,0,.534,2.262l5.8,1.932a1.368,1.368,0,0,0,.863-2.6Z" transform="translate(-0.005 1.831)" fill="#58c5c7"/>
    </g>
  </g>
</svg>
