<svg xmlns="http://www.w3.org/2000/svg" width="83.467" height="83.52" viewBox="0 0 83.467 83.52">
  <g id="behdashti" transform="translate(0.01 0.04)">
    <g id="Layer_3" data-name="Layer 3" transform="translate(-0.01 -0.04)">
      <path id="Path_14624" data-name="Path 14624" d="M82.373,48.2c0,9.689,4.2,17.28,9.566,17.28s9.566-7.591,9.566-17.28-4.2-17.28-9.566-17.28S82.373,38.511,82.373,48.2Zm16.85,0c0,8.13-3.335,15-7.284,15s-7.284-6.868-7.284-15,3.335-15,7.284-15S99.223,40.07,99.223,48.2Z" transform="translate(-28.652 -10.731)" fill="#e8cf75"/>
      <path id="Path_14625" data-name="Path 14625" d="M82.316-.04H44.241A1.142,1.142,0,0,0,43.1,1.1V6.774c0,.02.007.039.007.059a.14.14,0,0,0,0,.052l3.345,33.856H45.108v-1.1a5.716,5.716,0,0,0-4.6-5.6,22.075,22.075,0,0,0-4.186-11.959l-2.824-3.893a1.133,1.133,0,0,0-.906-.47,1.075,1.075,0,0,0-.919.443l-3.391,4.428a11.663,11.663,0,0,1-9.2,4.539A7.955,7.955,0,0,0,11.2,34.032,5.711,5.711,0,0,0,6.55,39.64v1.1H5.018a1.142,1.142,0,0,0-1.141,1.141v7.512H1.131A1.139,1.139,0,0,0-.01,50.536V63.4A32.011,32.011,0,0,0,6.752,83.036a1.133,1.133,0,0,0,.9.443H44.006a1.133,1.133,0,0,0,.9-.443,31.9,31.9,0,0,0,4.258-7.284v3.926a3.754,3.754,0,0,0,3.75,3.75H73.526a3.75,3.75,0,0,0,3.75-3.749V68.573a1.06,1.06,0,0,0,.111-.378L83.451,6.885V6.833c0-.02.007-.039.007-.059V1.1A1.142,1.142,0,0,0,82.316-.04ZM8.832,39.64a3.434,3.434,0,0,1,3.437-3.423h9.67a1.141,1.141,0,0,0,0-2.282H13.527a5.673,5.673,0,0,1,5.549-4.525,13.948,13.948,0,0,0,11.007-5.432l2.465-3.208,1.917,2.654A19.693,19.693,0,0,1,38.2,33.934H36a1.141,1.141,0,0,0,0,2.282h3.169a.642.642,0,0,0,.111-.013.569.569,0,0,0,.1.013h.02a3.431,3.431,0,0,1,3.423,3.423v1.1H8.832ZM6.159,47.347H20.042a1.141,1.141,0,0,0,0-2.282H6.159V43.024H45.5v2.041H31.616a1.141,1.141,0,1,0,0,2.282H45.5v2.048H6.159ZM49.386,63.4c0,.593-.026,1.2-.065,1.806-.007.085-.007.176-.013.261-.046.593-.1,1.187-.183,1.78A29.752,29.752,0,0,1,43.439,81.2H8.213A29.772,29.772,0,0,1,2.272,63.4V51.677H49.386ZM74.993,79.678a1.469,1.469,0,0,1-1.467,1.467H52.914a1.469,1.469,0,0,1-1.467-1.467V73.7H74.993Zm0-8.255H51.446v-2.2H74.993Zm.222-4.48H51.466l.02-.228c.046-.437.085-.874.111-1.311.007-.13.02-.261.026-.391.026-.535.046-1.076.046-1.611V50.536a1.139,1.139,0,0,0-1.141-1.141H49.6L45.5,7.915H81.058Zm5.96-61.309H45.382V2.242H81.175Z" transform="translate(0.01 0.04)" fill="#58c5c7"/>
      <path id="Path_14626" data-name="Path 14626" d="M44.355,80.34A1.141,1.141,0,0,0,43.214,79.2a10.066,10.066,0,0,0-4.782,1.194,8.4,8.4,0,0,0-3.669-4.375,1.14,1.14,0,0,0-1.144,0,8.4,8.4,0,0,0-3.667,4.376A10.066,10.066,0,0,0,25.17,79.2a1.141,1.141,0,0,0-1.141,1.141v.153a10.1,10.1,0,0,0,2.2,6.3,6.34,6.34,0,0,0-2.05,2.151,1.142,1.142,0,0,0,0,1.143,6.342,6.342,0,0,0,10.009,1.285A6.341,6.341,0,0,0,44.2,90.085a1.141,1.141,0,0,0,0-1.142,6.34,6.34,0,0,0-2.048-2.152,10.107,10.107,0,0,0,2.2-6.3ZM38.93,82.748A7.767,7.767,0,0,1,42,81.574a7.955,7.955,0,0,1-4.18,5.911c.123-.065.226-.456.28-.574a9.927,9.927,0,0,0,.443-1.112,8.367,8.367,0,0,0,.385-3.05Zm-4.739-4.383a6.079,6.079,0,0,1,0,9.774,6.078,6.078,0,0,1,0-9.774Zm-4.736,4.383a8.289,8.289,0,0,0,.376,3.029,8.1,8.1,0,0,0,.484,1.187,5.246,5.246,0,0,1,.243.515,7.956,7.956,0,0,1-4.173-5.906A7.774,7.774,0,0,1,29.455,82.748Zm.226,8.228a4.083,4.083,0,0,1-3.123-1.464,4.06,4.06,0,0,1,1.334-1.043,10.293,10.293,0,0,0,3.917,1.906,4.066,4.066,0,0,1-2.126.6Zm9.02,0a4.06,4.06,0,0,1-2.128-.6,10.291,10.291,0,0,0,3.917-1.906,4.053,4.053,0,0,1,1.334,1.043A4.081,4.081,0,0,1,38.7,90.976ZM40.149,52.06h-2.29a1.141,1.141,0,0,0,0,2.282h2.29a1.141,1.141,0,1,0,0-2.282Z" transform="translate(-8.353 -18.086)" fill="#e8cf75"/>
    </g>
  </g>
</svg>
