<svg xmlns="http://www.w3.org/2000/svg" width="75.511" height="75.485" viewBox="0 0 75.511 75.485">
  <g id="teb_sonati" data-name="teb sonati" transform="translate(-16 -16.16)">
    <path id="Path_14622" data-name="Path 14622" d="M91.511,41.934a4.418,4.418,0,0,0-4.4-4.4H80.451l9.36-10.414a6.568,6.568,0,0,0,1.683-4.389A6.558,6.558,0,0,0,80.546,17.85L58.616,37.53h-7.85a13.2,13.2,0,0,0,1.73-6.293c0-7.488-7.724-13.356-8.054-13.592a1.274,1.274,0,0,0-1.51,0,24.132,24.132,0,0,0-6.859,8.385c-4.232-5.364-12.648-6.324-13.026-6.355a1.239,1.239,0,0,0-1.29.771c-.157.378-3.823,9.36,0,15.794a11.828,11.828,0,0,0,.9,1.29H20.4a4.4,4.4,0,0,0-1.888,8.385v6.717A35.17,35.17,0,0,0,33.745,81.64v8.747A1.262,1.262,0,0,0,35,91.646H72.491a1.262,1.262,0,0,0,1.259-1.259V81.64A35.145,35.145,0,0,0,88.994,52.632V45.914A4.406,4.406,0,0,0,91.511,41.934Zm-9.3-22.213a4.051,4.051,0,0,1,5.569.142,4.055,4.055,0,0,1,.142,5.569L77.069,37.53H62.392Zm-38.526.551c1.825,1.573,6.293,5.946,6.293,10.965a11.507,11.507,0,0,1-2.155,6.293H44.946V26.2a1.259,1.259,0,0,0-2.517,0V37.53H39.55a15.276,15.276,0,0,1-1.1-1.951,10.28,10.28,0,0,1-1.054-4.342,8.633,8.633,0,0,1,.236-1.982C38.559,25.118,42.114,21.641,43.687,20.272ZM23.929,34.95c-2.548-4.295-.944-10.351-.173-12.632,2.36.425,8.448,1.919,11,6.214.11.189.22.393.33.6a12.1,12.1,0,0,0-.2,2.108,12.612,12.612,0,0,0,1.133,5.081c-.047.393-.094.8-.173,1.211H33.745a1.242,1.242,0,0,0-.11-1.023l-5.773-9.738a1.263,1.263,0,1,0-2.171,1.29l5.616,9.47h-5.1A10.013,10.013,0,0,1,23.929,34.95Zm47.32,54.179H36.262V81.578H71.233v7.551Zm15.228-36.5A32.641,32.641,0,0,1,72.932,79.139a1.365,1.365,0,0,0-.44-.079H35a1.365,1.365,0,0,0-.44.079A32.669,32.669,0,0,1,21.034,52.632V46.339H86.477Zm.629-8.81H20.4a1.888,1.888,0,0,1,0-3.776h66.7a1.888,1.888,0,0,1,0,3.776Z" fill="#58c5c7"/>
    <path id="Path_14623" data-name="Path 14623" d="M185.259,248.361h5.034v5.034a1.262,1.262,0,0,0,1.259,1.259H199.1a1.262,1.262,0,0,0,1.258-1.259v-5.034h5.034a1.262,1.262,0,0,0,1.258-1.259v-7.551a1.262,1.262,0,0,0-1.258-1.259h-5.034v-5.034A1.262,1.262,0,0,0,199.1,232h-7.551a1.262,1.262,0,0,0-1.259,1.259v5.034h-5.034A1.262,1.262,0,0,0,184,239.551V247.1A1.262,1.262,0,0,0,185.259,248.361Zm1.259-7.551h5.034a1.262,1.262,0,0,0,1.259-1.258v-5.034h5.034v5.034a1.262,1.262,0,0,0,1.259,1.258h5.034v5.034H199.1a1.262,1.262,0,0,0-1.259,1.259v5.034H192.81V247.1a1.262,1.262,0,0,0-1.259-1.259h-5.034Z" transform="translate(-141.571 -181.885)" fill="#e8cf75"/>
  </g>
</svg>
