<svg xmlns="http://www.w3.org/2000/svg" width="78.819" height="77.865" viewBox="0 0 78.819 77.865">
  <g id="sozan" transform="translate(-3.992 -4.362)">
    <path id="Path_14617" data-name="Path 14617" d="M16.947,38.32a1.407,1.407,0,1,0-2.578-1.129c-.074.166-1.76,4.109,1.123,10.281.046.12,2.294,5.975,4.46,12.93.127,1.295,1.259,13.783-1.931,18.923a1.416,1.416,0,0,0,1.195,2.15c2.519-.239,3.414-7.43,3.672-10.207a31.016,31.016,0,0,1,.957,9.33,1.407,1.407,0,1,0,2.791.356c1.182-9.253-8.12-33.47-8.556-34.585-2.325-4.983-1.193-7.9-1.131-8.049Zm52.04-11.473L57.413,21.962c-9.4-3.383-7.443-15.476-7.354-15.989a1.407,1.407,0,0,0-2.772-.48c-.9,5.148-.131,15.767,9.1,19.089l11.5,4.855A14.146,14.146,0,0,1,75.81,44.7c-.31,4.334-.636,12.834-2.829,16.539a1.407,1.407,0,1,0,2.163,1.8,4.832,4.832,0,0,0,.37-.545c.4,4.455.478,10.415-1.223,14.624a1.408,1.408,0,1,0,2.61,1.055c3.135-7.758.978-20.035.583-22.092a92.65,92.65,0,0,0,1.124-11.129,17.112,17.112,0,0,0-9.621-18.108Z" transform="translate(3.999)" fill="#58c5c7"/>
    <path id="Path_14618" data-name="Path 14618" d="M66.609,36.483a1.417,1.417,0,0,0-.742,1.839c.051.121,1.2,3.04-1.176,8.148l-.547,1.43a1.408,1.408,0,1,0,2.629,1.01l.509-1.345c2.927-6.265,1.238-10.205,1.164-10.371a1.4,1.4,0,0,0-1.836-.711Zm-3.746,23.9c.659-2.117,1.327-4.123,1.929-5.9a1.407,1.407,0,1,0-2.665-.9c-2.3,6.928-9.174,28.016-4.552,28.6a1.41,1.41,0,0,0,1.4-1.587,30.715,30.715,0,0,1,.957-9.251A22.349,22.349,0,0,0,62.4,80.811a1.408,1.408,0,0,0,2.391-1.486c-3.209-5.169-2.046-17.759-1.928-18.937ZM32.971,31.065a1.407,1.407,0,1,0,1.866-2.107L28.674,23.5c7.087-4.154,7.668-13.332,6.853-18.009a1.407,1.407,0,0,0-2.772.478c.084.493,1.855,11.608-6.34,15.532l-8.341-7.384a4.914,4.914,0,1,0-1.856,2.117l7.342,6.5-9.735,4.109c-.114.049-11.455,5-9.634,17.971A94.8,94.8,0,0,0,5.329,56.08c-.394,2.052-2.554,14.334.581,22.094a1.408,1.408,0,1,0,2.61-1.055C6.818,72.911,6.9,66.95,7.3,62.494c.933,2.09,3.831.67,2.533-1.257C7.624,57.452,7.314,49.016,6.989,44.562a14.068,14.068,0,0,1,7.931-15.124L25.894,24.8ZM15.215,13.426A2.111,2.111,0,1,1,15.5,11.2,2.1,2.1,0,0,1,15.215,13.426Z" transform="translate(0 0.001)" fill="#e8cf75"/>
    <path id="Path_14619" data-name="Path 14619" d="M31.681,24.151c.135-1.779-2.017-5.587-3.94-3.583a1.407,1.407,0,0,0,.3,1.967A2,2,0,1,1,25.08,25.05a1.407,1.407,0,1,0-2.513,1.267,4.827,4.827,0,0,0,9.115-2.163ZM55.063,29.9a4.814,4.814,0,1,0-4.814,4.814A4.814,4.814,0,0,0,55.063,29.9Zm-6.814,0a2,2,0,1,1,2,2,2,2,0,0,1-2-2ZM33.093,39.451a4.815,4.815,0,1,0,4.815,4.815,4.815,4.815,0,0,0-4.815-4.815Zm0,6.815a2,2,0,1,1,2-2,2,2,0,0,1-2,2Zm0,13.9a4.815,4.815,0,1,0,4.815,4.815,4.815,4.815,0,0,0-4.815-4.815Zm0,6.815a2,2,0,1,1,2-2,2,2,0,0,1-2,2Z" transform="translate(7.503 6.369)" fill="#94c846"/>
  </g>
</svg>
