<svg xmlns="http://www.w3.org/2000/svg" width="429.563" height="667.567" viewBox="0 0 429.563 667.567">
  <g id="Group_2666" data-name="Group 2666" transform="translate(11.536 -929)" opacity="0.2">
    <path id="Path_17517" data-name="Path 17517" d="M85.266,1426.5l3.033-1.751L50.681,1359.56l-3.033,1.751Z" transform="translate(22.417 163.08)" fill="rgba(232,207,117,0.37)"/>
    <path id="Path_17518" data-name="Path 17518" d="M85.045,1405.7a7.881,7.881,0,1,1-10.764-2.909A7.862,7.862,0,0,1,85.045,1405.7Z" transform="translate(31.009 179.054)" fill="rgba(232,207,117,0.37)"/>
    <path id="Path_17519" data-name="Path 17519" d="M-5.812,1362.412H69.423v-3.5H-5.812Z" transform="translate(2.168 162.834)" fill="rgba(232,207,117,0.37)"/>
    <path id="Path_17520" data-name="Path 17520" d="M50.923,1354.46a7.893,7.893,0,1,1-7.894,7.887A7.887,7.887,0,0,1,50.923,1354.46Z" transform="translate(20.667 161.149)" fill="rgba(232,207,117,0.37)"/>
    <path id="Path_17521" data-name="Path 17521" d="M3.187,1358.415a7.862,7.862,0,0,1-2.9,10.768,7.876,7.876,0,0,1-10.764-2.9,7.862,7.862,0,0,1,2.9-10.768A7.864,7.864,0,0,1,3.187,1358.415Z" transform="translate(0 161.151)" fill="rgba(232,207,117,0.37)"/>
    <path id="Path_17522" data-name="Path 17522" d="M85.266,1331.935l3.033-1.751L50.681,1265.01l-3.033,1.751Z" transform="translate(22.417 127.268)" fill="rgba(232,207,117,0.37)"/>
    <path id="Path_17523" data-name="Path 17523" d="M85.048,1311.138a7.885,7.885,0,1,1-10.764-2.9A7.862,7.862,0,0,1,85.048,1311.138Z" transform="translate(31.006 143.239)" fill="rgba(232,207,117,0.37)"/>
    <path id="Path_17524" data-name="Path 17524" d="M50.692,1379.215l37.64-65.174L85.3,1312.29l-37.64,65.174Z" transform="translate(22.421 145.176)" fill="rgba(232,207,117,0.37)"/>
    <path id="Path_17525" data-name="Path 17525" d="M57.749,1366.306a7.885,7.885,0,1,1-2.9-10.768A7.925,7.925,0,0,1,57.749,1366.306Z" transform="translate(20.673 161.16)" fill="rgba(232,207,117,0.37)"/>
    <path id="Path_17526" data-name="Path 17526" d="M-5.812,1362.412H69.423v-3.5H-5.812Z" transform="translate(2.168 162.834)" fill="rgba(232,207,117,0.37)"/>
    <path id="Path_17527" data-name="Path 17527" d="M-10.481,1263.852a7.913,7.913,0,0,1,10.764-2.9,7.912,7.912,0,0,1,2.9,10.768,7.913,7.913,0,0,1-10.764,2.9A7.912,7.912,0,0,1-10.481,1263.852Z" transform="translate(0.005 125.338)" fill="rgba(232,207,117,0.37)"/>
    <path id="Path_17528" data-name="Path 17528" d="M-5.812,1267.886H69.423v-3.516H-5.812Z" transform="translate(2.168 127.026)" fill="rgba(232,207,117,0.37)"/>
    <path id="Path_17529" data-name="Path 17529" d="M50.923,1259.92a7.893,7.893,0,1,1-7.894,7.886A7.887,7.887,0,0,1,50.923,1259.92Z" transform="translate(20.667 125.34)" fill="rgba(232,207,117,0.37)"/>
    <path id="Path_17530" data-name="Path 17530" d="M167.131,1379.2l3.033-1.751-37.618-65.188-3.032,1.751Z" transform="translate(53.425 145.165)" fill="rgba(232,207,117,0.37)"/>
    <path id="Path_17531" data-name="Path 17531" d="M166.889,1358.415a7.885,7.885,0,1,1-10.765-2.9A7.863,7.863,0,0,1,166.889,1358.415Z" transform="translate(62.004 161.151)" fill="rgba(232,207,117,0.37)"/>
    <path id="Path_17532" data-name="Path 17532" d="M85.266,1426.5l3.033-1.751L50.681,1359.56l-3.033,1.751Z" transform="translate(22.417 163.08)" fill="rgba(232,207,117,0.37)"/>
    <path id="Path_17533" data-name="Path 17533" d="M44.091,1366.311a7.885,7.885,0,1,1,10.764,2.9A7.862,7.862,0,0,1,44.091,1366.311Z" transform="translate(20.668 161.155)" fill="rgba(232,207,117,0.37)"/>
    <path id="Path_17534" data-name="Path 17534" d="M50.693,1379.215l37.64-65.174L85.3,1312.29l-37.64,65.174Z" transform="translate(22.421 145.176)" fill="rgba(232,207,117,0.37)"/>
    <path id="Path_17535" data-name="Path 17535" d="M71.38,1311.133a7.885,7.885,0,1,1,2.9,10.768A7.9,7.9,0,0,1,71.38,1311.133Z" transform="translate(31.011 143.245)" fill="rgba(232,207,117,0.37)"/>
    <path id="Path_17536" data-name="Path 17536" d="M76.049,1315.132h75.235v-3.5H76.049Z" transform="translate(33.174 144.926)" fill="rgba(232,207,117,0.37)"/>
    <path id="Path_17537" data-name="Path 17537" d="M132.785,1307.18a7.893,7.893,0,1,0,7.893,7.886A7.89,7.89,0,0,0,132.785,1307.18Z" transform="translate(51.673 143.241)" fill="rgba(232,207,117,0.37)"/>
    <path id="Path_17538" data-name="Path 17538" d="M167.131,1379.2l3.033-1.751-37.618-65.188-3.032,1.751Z" transform="translate(53.425 145.165)" fill="rgba(232,207,117,0.37)"/>
    <path id="Path_17539" data-name="Path 17539" d="M125.952,1319.031a7.885,7.885,0,1,1,10.764,2.9A7.861,7.861,0,0,1,125.952,1319.031Z" transform="translate(51.674 143.247)" fill="rgba(232,207,117,0.37)"/>
    <path id="Path_17540" data-name="Path 17540" d="M132.51,1331.9l37.653-65.174-3.032-1.751-37.651,65.16Z" transform="translate(53.412 127.253)" fill="rgba(232,207,117,0.37)"/>
    <path id="Path_17541" data-name="Path 17541" d="M153.22,1263.853a7.885,7.885,0,1,1,2.9,10.768A7.9,7.9,0,0,1,153.22,1263.853Z" transform="translate(62.009 125.337)" fill="rgba(232,207,117,0.37)"/>
    <path id="Path_17542" data-name="Path 17542" d="M157.889,1267.886h75.235v-3.516H157.889Z" transform="translate(64.172 127.026)" fill="rgba(232,207,117,0.37)"/>
    <path id="Path_17543" data-name="Path 17543" d="M214.625,1259.92a7.893,7.893,0,1,1-7.895,7.886A7.887,7.887,0,0,1,214.625,1259.92Z" transform="translate(82.671 125.34)" fill="rgba(232,207,117,0.37)"/>
    <path id="Path_17544" data-name="Path 17544" d="M3.187,1263.857a7.862,7.862,0,0,1-2.9,10.768,7.876,7.876,0,0,1-10.764-2.9,7.862,7.862,0,0,1,2.9-10.768A7.858,7.858,0,0,1,3.187,1263.857Z" transform="translate(0 125.333)" fill="rgba(232,207,117,0.37)"/>
    <path id="Path_17545" data-name="Path 17545" d="M85.276,1237.409l3.033-1.751L50.692,1170.47l-3.033,1.751Z" transform="translate(22.421 91.46)" fill="rgba(232,207,117,0.37)"/>
    <path id="Path_17546" data-name="Path 17546" d="M85.048,1216.6a7.885,7.885,0,1,1-10.764-2.9A7.862,7.862,0,0,1,85.048,1216.6Z" transform="translate(31.006 107.433)" fill="rgba(232,207,117,0.37)"/>
    <path id="Path_17547" data-name="Path 17547" d="M50.69,1284.675l37.64-65.174L85.3,1217.75l-37.64,65.174Z" transform="translate(22.421 109.368)" fill="rgba(232,207,117,0.37)"/>
    <path id="Path_17548" data-name="Path 17548" d="M57.749,1271.744a7.885,7.885,0,1,1-2.9-10.768A7.913,7.913,0,0,1,57.749,1271.744Z" transform="translate(20.673 125.346)" fill="rgba(232,207,117,0.37)"/>
    <path id="Path_17549" data-name="Path 17549" d="M-5.812,1267.886H69.423v-3.516H-5.812Z" transform="translate(2.168 127.026)" fill="rgba(232,207,117,0.37)"/>
    <path id="Path_17550" data-name="Path 17550" d="M-10.481,1169.312a7.913,7.913,0,0,1,10.764-2.9,7.919,7.919,0,0,1,2.9,10.768,7.9,7.9,0,0,1-10.764,2.9A7.912,7.912,0,0,1-10.481,1169.312Z" transform="translate(0.005 89.53)" fill="rgba(232,207,117,0.37)"/>
    <path id="Path_17551" data-name="Path 17551" d="M-5.812,1173.322H69.423v-3.5H-5.812Z" transform="translate(2.168 91.214)" fill="rgba(232,207,117,0.37)"/>
    <path id="Path_17552" data-name="Path 17552" d="M50.923,1165.36a7.893,7.893,0,1,1-7.894,7.9A7.89,7.89,0,0,1,50.923,1165.36Z" transform="translate(20.667 89.525)" fill="rgba(232,207,117,0.37)"/>
    <path id="Path_17553" data-name="Path 17553" d="M167.131,1284.669l3.033-1.751-37.618-65.188-3.032,1.751Z" transform="translate(53.425 109.36)" fill="rgba(232,207,117,0.37)"/>
    <path id="Path_17554" data-name="Path 17554" d="M166.889,1263.857a7.885,7.885,0,1,1-10.765-2.9A7.863,7.863,0,0,1,166.889,1263.857Z" transform="translate(62.004 125.333)" fill="rgba(232,207,117,0.37)"/>
    <path id="Path_17555" data-name="Path 17555" d="M132.51,1331.9l37.653-65.174-3.032-1.751-37.651,65.16Z" transform="translate(53.412 127.253)" fill="rgba(232,207,117,0.37)"/>
    <path id="Path_17556" data-name="Path 17556" d="M139.611,1319.024a7.885,7.885,0,1,1-2.9-10.768A7.913,7.913,0,0,1,139.611,1319.024Z" transform="translate(51.679 143.254)" fill="rgba(232,207,117,0.37)"/>
    <path id="Path_17557" data-name="Path 17557" d="M76.049,1315.132h75.235v-3.5H76.049Z" transform="translate(33.174 144.926)" fill="rgba(232,207,117,0.37)"/>
    <path id="Path_17558" data-name="Path 17558" d="M78.217,1322.967a7.893,7.893,0,1,1,7.894-7.9A7.89,7.89,0,0,1,78.217,1322.967Z" transform="translate(31.005 143.241)" fill="rgba(232,207,117,0.37)"/>
    <path id="Path_17559" data-name="Path 17559" d="M85.266,1331.935l3.033-1.751L50.681,1265.01l-3.033,1.751Z" transform="translate(22.417 127.268)" fill="rgba(232,207,117,0.37)"/>
    <path id="Path_17560" data-name="Path 17560" d="M44.091,1271.749a7.885,7.885,0,1,1,10.764,2.9A7.862,7.862,0,0,1,44.091,1271.749Z" transform="translate(20.668 125.341)" fill="rgba(232,207,117,0.37)"/>
    <path id="Path_17561" data-name="Path 17561" d="M50.69,1284.675l37.64-65.16L85.3,1217.75l-37.64,65.174Z" transform="translate(22.421 109.368)" fill="rgba(232,207,117,0.37)"/>
    <path id="Path_17562" data-name="Path 17562" d="M71.38,1216.592a7.885,7.885,0,1,1,2.9,10.768A7.913,7.913,0,0,1,71.38,1216.592Z" transform="translate(31.011 107.438)" fill="rgba(232,207,117,0.37)"/>
    <path id="Path_17563" data-name="Path 17563" d="M76.049,1220.6h75.235v-3.5H76.049Z" transform="translate(33.174 109.122)" fill="rgba(232,207,117,0.37)"/>
    <path id="Path_17564" data-name="Path 17564" d="M132.785,1212.64a7.893,7.893,0,1,0,7.893,7.9A7.893,7.893,0,0,0,132.785,1212.64Z" transform="translate(51.673 107.433)" fill="rgba(232,207,117,0.37)"/>
    <path id="Path_17565" data-name="Path 17565" d="M248.968,1237.4l3.033-1.751-37.618-65.188-3.032,1.751Z" transform="translate(84.421 91.456)" fill="rgba(232,207,117,0.37)"/>
    <path id="Path_17566" data-name="Path 17566" d="M248.729,1216.6a7.885,7.885,0,1,1-10.765-2.9A7.863,7.863,0,0,1,248.729,1216.6Z" transform="translate(93.002 107.433)" fill="rgba(232,207,117,0.37)"/>
    <path id="Path_17567" data-name="Path 17567" d="M214.389,1284.655l37.64-65.174L249,1217.73l-37.64,65.174Z" transform="translate(84.424 109.36)" fill="rgba(232,207,117,0.37)"/>
    <path id="Path_17568" data-name="Path 17568" d="M221.451,1271.744a7.885,7.885,0,1,1-2.9-10.768A7.915,7.915,0,0,1,221.451,1271.744Z" transform="translate(82.677 125.346)" fill="rgba(232,207,117,0.37)"/>
    <path id="Path_17569" data-name="Path 17569" d="M157.889,1267.886h75.235v-3.516H157.889Z" transform="translate(64.172 127.026)" fill="rgba(232,207,117,0.37)"/>
    <path id="Path_17570" data-name="Path 17570" d="M160.058,1275.707a7.893,7.893,0,1,1,7.893-7.9A7.89,7.89,0,0,1,160.058,1275.707Z" transform="translate(62.003 125.34)" fill="rgba(232,207,117,0.37)"/>
    <path id="Path_17571" data-name="Path 17571" d="M167.131,1284.669l3.033-1.751-37.618-65.188-3.032,1.751Z" transform="translate(53.425 109.36)" fill="rgba(232,207,117,0.37)"/>
    <path id="Path_17572" data-name="Path 17572" d="M125.952,1224.469a7.885,7.885,0,1,1,10.764,2.9A7.861,7.861,0,0,1,125.952,1224.469Z" transform="translate(51.674 107.433)" fill="rgba(232,207,117,0.37)"/>
    <path id="Path_17573" data-name="Path 17573" d="M132.535,1237.4l37.64-65.174-3.032-1.751-37.64,65.16Z" transform="translate(53.42 91.46)" fill="rgba(232,207,117,0.37)"/>
    <path id="Path_17574" data-name="Path 17574" d="M153.22,1169.311a7.885,7.885,0,1,1,2.9,10.768A7.925,7.925,0,0,1,153.22,1169.311Z" transform="translate(62.009 89.531)" fill="rgba(232,207,117,0.37)"/>
    <path id="Path_17575" data-name="Path 17575" d="M157.889,1173.322h75.235v-3.5H157.889Z" transform="translate(64.172 91.214)" fill="rgba(232,207,117,0.37)"/>
    <path id="Path_17576" data-name="Path 17576" d="M214.625,1165.36a7.893,7.893,0,1,1-7.895,7.9A7.89,7.89,0,0,1,214.625,1165.36Z" transform="translate(82.671 89.525)" fill="rgba(232,207,117,0.37)"/>
    <path id="Path_17577" data-name="Path 17577" d="M214.389,1284.655l37.64-65.174L249,1217.73l-37.64,65.174Z" transform="translate(84.424 109.36)" fill="rgba(232,207,117,0.37)"/>
    <path id="Path_17578" data-name="Path 17578" d="M235.06,1216.591a7.885,7.885,0,1,1,2.9,10.768A7.925,7.925,0,0,1,235.06,1216.591Z" transform="translate(93.007 107.439)" fill="rgba(232,207,117,0.37)"/>
    <path id="Path_17579" data-name="Path 17579" d="M239.729,1220.6h75.235v-3.5H239.729Z" transform="translate(95.17 109.122)" fill="rgba(232,207,117,0.37)"/>
    <path id="Path_17580" data-name="Path 17580" d="M296.465,1212.64a7.893,7.893,0,1,0,7.893,7.9A7.893,7.893,0,0,0,296.465,1212.64Z" transform="translate(113.669 107.433)" fill="rgba(232,207,117,0.37)"/>
    <path id="Path_17581" data-name="Path 17581" d="M3.184,1169.313a7.862,7.862,0,0,1-2.9,10.768,7.863,7.863,0,0,1-10.764-2.9,7.88,7.88,0,0,1,2.9-10.768A7.875,7.875,0,0,1,3.184,1169.313Z" transform="translate(0.004 89.528)" fill="rgba(232,207,117,0.37)"/>
    <path id="Path_17582" data-name="Path 17582" d="M85.256,1142.859l3.033-1.751L50.671,1075.92l-3.033,1.751Z" transform="translate(22.413 55.648)" fill="rgba(232,207,117,0.37)"/>
    <path id="Path_17583" data-name="Path 17583" d="M85.048,1122.036a7.885,7.885,0,1,1-10.764-2.9A7.881,7.881,0,0,1,85.048,1122.036Z" transform="translate(31.006 71.618)" fill="rgba(232,207,117,0.37)"/>
    <path id="Path_17584" data-name="Path 17584" d="M50.666,1190.081l37.652-65.16-3.032-1.751-37.652,65.16Z" transform="translate(22.411 73.545)" fill="rgba(232,207,117,0.37)"/>
    <path id="Path_17585" data-name="Path 17585" d="M57.749,1177.2a7.885,7.885,0,1,1-2.9-10.768A7.917,7.917,0,0,1,57.749,1177.2Z" transform="translate(20.673 89.539)" fill="rgba(232,207,117,0.37)"/>
    <path id="Path_17586" data-name="Path 17586" d="M-5.812,1173.322H69.423v-3.5H-5.812Z" transform="translate(2.168 91.214)" fill="rgba(232,207,117,0.37)"/>
    <path id="Path_17587" data-name="Path 17587" d="M-10.481,1074.765a7.917,7.917,0,0,1,10.764-2.909,7.913,7.913,0,0,1,2.9,10.768,7.918,7.918,0,0,1-10.764,2.909A7.919,7.919,0,0,1-10.481,1074.765Z" transform="translate(0.005 53.715)" fill="rgba(232,207,117,0.37)"/>
    <path id="Path_17588" data-name="Path 17588" d="M-5.812,1078.782H69.423v-3.5H-5.812Z" transform="translate(2.168 55.406)" fill="rgba(232,207,117,0.37)"/>
    <path id="Path_17589" data-name="Path 17589" d="M50.923,1070.82a7.9,7.9,0,1,1-7.894,7.9A7.89,7.89,0,0,1,50.923,1070.82Z" transform="translate(20.667 53.716)" fill="rgba(232,207,117,0.37)"/>
    <path id="Path_17590" data-name="Path 17590" d="M167.142,1190.105l3.032-1.751-37.617-65.174-3.033,1.751Z" transform="translate(53.428 73.548)" fill="rgba(232,207,117,0.37)"/>
    <path id="Path_17591" data-name="Path 17591" d="M166.885,1169.313a7.885,7.885,0,1,1-10.765-2.9A7.863,7.863,0,0,1,166.885,1169.313Z" transform="translate(62.007 89.528)" fill="rgba(232,207,117,0.37)"/>
    <path id="Path_17592" data-name="Path 17592" d="M132.535,1237.4l37.64-65.174-3.032-1.751-37.64,65.16Z" transform="translate(53.42 91.46)" fill="rgba(232,207,117,0.37)"/>
    <path id="Path_17593" data-name="Path 17593" d="M139.611,1224.464a7.885,7.885,0,1,1-2.9-10.768A7.9,7.9,0,0,1,139.611,1224.464Z" transform="translate(51.679 107.438)" fill="rgba(232,207,117,0.37)"/>
    <path id="Path_17594" data-name="Path 17594" d="M76.049,1220.6h75.235v-3.5H76.049Z" transform="translate(33.174 109.122)" fill="rgba(232,207,117,0.37)"/>
    <path id="Path_17595" data-name="Path 17595" d="M78.217,1228.427a7.893,7.893,0,1,1,7.894-7.886A7.887,7.887,0,0,1,78.217,1228.427Z" transform="translate(31.005 107.433)" fill="rgba(232,207,117,0.37)"/>
    <path id="Path_17596" data-name="Path 17596" d="M85.276,1237.409l3.033-1.751L50.692,1170.47l-3.033,1.751Z" transform="translate(22.421 91.46)" fill="rgba(232,207,117,0.37)"/>
    <path id="Path_17597" data-name="Path 17597" d="M44.091,1177.208a7.881,7.881,0,1,1,10.764,2.909A7.862,7.862,0,0,1,44.091,1177.208Z" transform="translate(20.668 89.533)" fill="rgba(232,207,117,0.37)"/>
    <path id="Path_17598" data-name="Path 17598" d="M50.666,1190.081l37.652-65.16-3.032-1.751-37.652,65.16Z" transform="translate(22.411 73.545)" fill="rgba(232,207,117,0.37)"/>
    <path id="Path_17599" data-name="Path 17599" d="M71.38,1122.031a7.885,7.885,0,1,1,2.9,10.782A7.926,7.926,0,0,1,71.38,1122.031Z" transform="translate(31.011 71.623)" fill="rgba(232,207,117,0.37)"/>
    <path id="Path_17600" data-name="Path 17600" d="M76.049,1126.042h75.235v-3.5H76.049Z" transform="translate(33.174 73.306)" fill="rgba(232,207,117,0.37)"/>
    <path id="Path_17601" data-name="Path 17601" d="M132.785,1118.08a7.9,7.9,0,1,0,7.893,7.9A7.893,7.893,0,0,0,132.785,1118.08Z" transform="translate(51.673 71.617)" fill="rgba(232,207,117,0.37)"/>
    <path id="Path_17602" data-name="Path 17602" d="M248.968,1142.849,252,1141.1l-37.618-65.188-3.032,1.751Z" transform="translate(84.421 55.644)" fill="rgba(232,207,117,0.37)"/>
    <path id="Path_17603" data-name="Path 17603" d="M248.729,1122.036a7.885,7.885,0,1,1-10.765-2.9A7.882,7.882,0,0,1,248.729,1122.036Z" transform="translate(93.002 71.618)" fill="rgba(232,207,117,0.37)"/>
    <path id="Path_17604" data-name="Path 17604" d="M214.389,1190.051l37.651-65.16-3.032-1.751-37.651,65.16Z" transform="translate(84.424 73.533)" fill="rgba(232,207,117,0.37)"/>
    <path id="Path_17605" data-name="Path 17605" d="M221.451,1177.2a7.885,7.885,0,1,1-2.9-10.768A7.919,7.919,0,0,1,221.451,1177.2Z" transform="translate(82.677 89.539)" fill="rgba(232,207,117,0.37)"/>
    <path id="Path_17606" data-name="Path 17606" d="M157.889,1173.322h75.235v-3.5H157.889Z" transform="translate(64.172 91.214)" fill="rgba(232,207,117,0.37)"/>
    <path id="Path_17607" data-name="Path 17607" d="M160.058,1165.36a7.893,7.893,0,1,0,7.893,7.9A7.893,7.893,0,0,0,160.058,1165.36Z" transform="translate(62.003 89.525)" fill="rgba(232,207,117,0.37)"/>
    <path id="Path_17608" data-name="Path 17608" d="M167.142,1190.105l3.032-1.751-37.617-65.174-3.033,1.751Z" transform="translate(53.428 73.548)" fill="rgba(232,207,117,0.37)"/>
    <path id="Path_17609" data-name="Path 17609" d="M125.952,1129.929a7.881,7.881,0,1,1,10.764,2.909A7.861,7.861,0,0,1,125.952,1129.929Z" transform="translate(51.674 71.625)" fill="rgba(232,207,117,0.37)"/>
    <path id="Path_17610" data-name="Path 17610" d="M132.533,1142.855l37.64-65.16-3.032-1.765L129.5,1141.1Z" transform="translate(53.42 55.652)" fill="rgba(232,207,117,0.37)"/>
    <path id="Path_17611" data-name="Path 17611" d="M153.22,1074.765a7.881,7.881,0,1,1,2.9,10.768A7.917,7.917,0,0,1,153.22,1074.765Z" transform="translate(62.009 53.715)" fill="rgba(232,207,117,0.37)"/>
    <path id="Path_17612" data-name="Path 17612" d="M157.889,1078.782h75.235v-3.5H157.889Z" transform="translate(64.172 55.406)" fill="rgba(232,207,117,0.37)"/>
    <path id="Path_17613" data-name="Path 17613" d="M214.625,1070.82a7.9,7.9,0,1,1-7.895,7.9A7.89,7.89,0,0,1,214.625,1070.82Z" transform="translate(82.671 53.716)" fill="rgba(232,207,117,0.37)"/>
    <path id="Path_17614" data-name="Path 17614" d="M239.729,1220.6h75.235v-3.5H239.729Z" transform="translate(95.17 109.122)" fill="rgba(232,207,117,0.37)"/>
    <path id="Path_17615" data-name="Path 17615" d="M241.9,1212.64a7.893,7.893,0,1,0,7.893,7.9A7.893,7.893,0,0,0,241.9,1212.64Z" transform="translate(93.001 107.433)" fill="rgba(232,207,117,0.37)"/>
    <path id="Path_17616" data-name="Path 17616" d="M248.968,1237.4l3.033-1.751-37.618-65.188-3.032,1.751Z" transform="translate(84.421 91.456)" fill="rgba(232,207,117,0.37)"/>
    <path id="Path_17617" data-name="Path 17617" d="M207.792,1177.208a7.885,7.885,0,1,1,10.764,2.909A7.861,7.861,0,0,1,207.792,1177.208Z" transform="translate(82.672 89.533)" fill="rgba(232,207,117,0.37)"/>
    <path id="Path_17618" data-name="Path 17618" d="M214.389,1190.051l37.651-65.16-3.032-1.751-37.651,65.16Z" transform="translate(84.424 73.533)" fill="rgba(232,207,117,0.37)"/>
    <path id="Path_17619" data-name="Path 17619" d="M235.06,1122.031a7.885,7.885,0,1,1,2.9,10.768A7.925,7.925,0,0,1,235.06,1122.031Z" transform="translate(93.007 71.623)" fill="rgba(232,207,117,0.37)"/>
    <path id="Path_17620" data-name="Path 17620" d="M239.729,1126.042h75.235v-3.5H239.729Z" transform="translate(95.17 73.306)" fill="rgba(232,207,117,0.37)"/>
    <path id="Path_17621" data-name="Path 17621" d="M296.465,1118.08a7.9,7.9,0,1,0,7.893,7.9A7.893,7.893,0,0,0,296.465,1118.08Z" transform="translate(113.669 71.617)" fill="rgba(232,207,117,0.37)"/>
    <path id="Path_17622" data-name="Path 17622" d="M3.188,1074.77a7.868,7.868,0,0,1-2.9,10.768,7.863,7.863,0,0,1-10.764-2.909,7.862,7.862,0,0,1,2.9-10.768A7.863,7.863,0,0,1,3.188,1074.77Z" transform="translate(0 53.71)" fill="rgba(232,207,117,0.37)"/>
    <path id="Path_17623" data-name="Path 17623" d="M85.266,1048.3l3.033-1.751L50.681,981.364l-3.033,1.751Z" transform="translate(22.417 19.834)" fill="rgba(232,207,117,0.37)"/>
    <path id="Path_17624" data-name="Path 17624" d="M85.048,1027.51a7.881,7.881,0,1,1-10.764-2.909A7.862,7.862,0,0,1,85.048,1027.51Z" transform="translate(31.006 35.81)" fill="rgba(232,207,117,0.37)"/>
    <path id="Path_17625" data-name="Path 17625" d="M50.689,1095.595l37.64-65.16L85.3,1028.67l-37.64,65.174Z" transform="translate(22.42 37.752)" fill="rgba(232,207,117,0.37)"/>
    <path id="Path_17626" data-name="Path 17626" d="M57.749,1082.643a7.881,7.881,0,1,1-2.9-10.768A7.918,7.918,0,0,1,57.749,1082.643Z" transform="translate(20.673 53.723)" fill="rgba(232,207,117,0.37)"/>
    <path id="Path_17627" data-name="Path 17627" d="M-5.812,1078.782H69.423v-3.5H-5.812Z" transform="translate(2.168 55.406)" fill="rgba(232,207,117,0.37)"/>
    <path id="Path_17628" data-name="Path 17628" d="M-10.481,980.222a7.914,7.914,0,0,1,10.764-2.9,7.921,7.921,0,0,1,2.9,10.768,7.914,7.914,0,0,1-10.764,2.9A7.921,7.921,0,0,1-10.481,980.222Z" transform="translate(0.005 17.908)" fill="rgba(232,207,117,0.37)"/>
    <path id="Path_17629" data-name="Path 17629" d="M-5.812,984.224H69.423v-3.5H-5.812Z" transform="translate(2.168 19.59)" fill="rgba(232,207,117,0.37)"/>
    <path id="Path_17630" data-name="Path 17630" d="M50.923,976.264a7.9,7.9,0,1,1-7.894,7.9A7.891,7.891,0,0,1,50.923,976.264Z" transform="translate(20.667 17.902)" fill="rgba(232,207,117,0.37)"/>
    <path id="Path_17631" data-name="Path 17631" d="M167.121,1095.559l3.032-1.751-37.617-65.188-3.033,1.751Z" transform="translate(53.42 37.732)" fill="rgba(232,207,117,0.37)"/>
    <path id="Path_17632" data-name="Path 17632" d="M166.889,1074.77a7.881,7.881,0,1,1-10.765-2.909A7.869,7.869,0,0,1,166.889,1074.77Z" transform="translate(62.004 53.71)" fill="rgba(232,207,117,0.37)"/>
    <path id="Path_17633" data-name="Path 17633" d="M132.533,1142.855l37.64-65.174-3.032-1.751L129.5,1141.1Z" transform="translate(53.42 55.652)" fill="rgba(232,207,117,0.37)"/>
    <path id="Path_17634" data-name="Path 17634" d="M139.611,1129.924a7.881,7.881,0,1,1-2.9-10.768A7.919,7.919,0,0,1,139.611,1129.924Z" transform="translate(51.679 71.631)" fill="rgba(232,207,117,0.37)"/>
    <path id="Path_17635" data-name="Path 17635" d="M76.049,1126.042h75.235v-3.5H76.049Z" transform="translate(33.174 73.306)" fill="rgba(232,207,117,0.37)"/>
    <path id="Path_17636" data-name="Path 17636" d="M78.217,1133.881a7.9,7.9,0,1,1,7.894-7.9A7.9,7.9,0,0,1,78.217,1133.881Z" transform="translate(31.005 71.617)" fill="rgba(232,207,117,0.37)"/>
    <path id="Path_17637" data-name="Path 17637" d="M85.256,1142.859l3.033-1.751L50.671,1075.92l-3.033,1.751Z" transform="translate(22.413 55.648)" fill="rgba(232,207,117,0.37)"/>
    <path id="Path_17638" data-name="Path 17638" d="M44.091,1082.648a7.881,7.881,0,1,1,10.764,2.909A7.862,7.862,0,0,1,44.091,1082.648Z" transform="translate(20.668 53.717)" fill="rgba(232,207,117,0.37)"/>
    <path id="Path_17639" data-name="Path 17639" d="M50.689,1095.595l37.64-65.16L85.3,1028.67l-37.64,65.174Z" transform="translate(22.42 37.752)" fill="rgba(232,207,117,0.37)"/>
    <path id="Path_17640" data-name="Path 17640" d="M71.38,1027.5a7.881,7.881,0,1,1,2.9,10.768A7.917,7.917,0,0,1,71.38,1027.5Z" transform="translate(31.011 35.815)" fill="rgba(232,207,117,0.37)"/>
    <path id="Path_17641" data-name="Path 17641" d="M76.049,1031.5h75.235V1028H76.049Z" transform="translate(33.174 37.498)" fill="rgba(232,207,117,0.37)"/>
    <path id="Path_17642" data-name="Path 17642" d="M132.785,1023.54a7.9,7.9,0,1,1-7.895,7.9A7.89,7.89,0,0,1,132.785,1023.54Z" transform="translate(51.673 35.808)" fill="rgba(232,207,117,0.37)"/>
    <path id="Path_17643" data-name="Path 17643" d="M214.388,1095.575l37.639-65.174L249,1028.65l-37.64,65.174Z" transform="translate(84.423 37.744)" fill="rgba(232,207,117,0.37)"/>
    <path id="Path_17644" data-name="Path 17644" d="M221.451,1082.643a7.881,7.881,0,1,1-2.9-10.768A7.919,7.919,0,0,1,221.451,1082.643Z" transform="translate(82.677 53.723)" fill="rgba(232,207,117,0.37)"/>
    <path id="Path_17645" data-name="Path 17645" d="M157.889,1078.782h75.235v-3.5H157.889Z" transform="translate(64.172 55.406)" fill="rgba(232,207,117,0.37)"/>
    <path id="Path_17646" data-name="Path 17646" d="M160.058,1070.82a7.9,7.9,0,1,0,7.893,7.9A7.9,7.9,0,0,0,160.058,1070.82Z" transform="translate(62.003 53.716)" fill="rgba(232,207,117,0.37)"/>
    <path id="Path_17647" data-name="Path 17647" d="M167.121,1095.559l3.032-1.751-37.617-65.188-3.033,1.751Z" transform="translate(53.42 37.732)" fill="rgba(232,207,117,0.37)"/>
    <path id="Path_17648" data-name="Path 17648" d="M125.952,1035.368a7.881,7.881,0,1,1,10.764,2.909A7.867,7.867,0,0,1,125.952,1035.368Z" transform="translate(51.674 35.81)" fill="rgba(232,207,117,0.37)"/>
    <path id="Path_17649" data-name="Path 17649" d="M132.533,1048.233l37.651-65.166-3.032-1.752L129.5,1046.482Z" transform="translate(53.42 19.815)" fill="rgba(232,207,117,0.37)"/>
    <path id="Path_17650" data-name="Path 17650" d="M153.22,980.221a7.883,7.883,0,1,1,2.9,10.768A7.914,7.914,0,0,1,153.22,980.221Z" transform="translate(62.009 17.908)" fill="rgba(232,207,117,0.37)"/>
    <path id="Path_17651" data-name="Path 17651" d="M239.729,1126.042h75.235v-3.5H239.729Z" transform="translate(95.17 73.306)" fill="rgba(232,207,117,0.37)"/>
    <path id="Path_17652" data-name="Path 17652" d="M241.9,1118.08a7.9,7.9,0,1,0,7.893,7.9A7.893,7.893,0,0,0,241.9,1118.08Z" transform="translate(93.001 71.617)" fill="rgba(232,207,117,0.37)"/>
    <path id="Path_17653" data-name="Path 17653" d="M248.968,1142.849l3.033-1.765-37.618-65.174-3.032,1.751Z" transform="translate(84.421 55.644)" fill="rgba(232,207,117,0.37)"/>
    <path id="Path_17654" data-name="Path 17654" d="M207.792,1082.648a7.881,7.881,0,1,1,10.764,2.909A7.861,7.861,0,0,1,207.792,1082.648Z" transform="translate(82.672 53.717)" fill="rgba(232,207,117,0.37)"/>
    <path id="Path_17655" data-name="Path 17655" d="M214.388,1095.575l37.639-65.174L249,1028.65l-37.64,65.174Z" transform="translate(84.423 37.744)" fill="rgba(232,207,117,0.37)"/>
    <path id="Path_17656" data-name="Path 17656" d="M235.06,1027.5a7.881,7.881,0,1,1,2.9,10.768A7.917,7.917,0,0,1,235.06,1027.5Z" transform="translate(93.007 35.815)" fill="rgba(232,207,117,0.37)"/>
    <path id="Path_17657" data-name="Path 17657" d="M3.184,980.223a7.863,7.863,0,0,1-2.9,10.768,7.875,7.875,0,0,1-10.764-2.9,7.883,7.883,0,0,1,2.9-10.77A7.876,7.876,0,0,1,3.184,980.223Z" transform="translate(0.004 17.906)" fill="rgba(232,207,117,0.37)"/>
    <path id="Path_17658" data-name="Path 17658" d="M50.669,1001.051l37.64-65.169-3.032-1.752L47.637,999.3Z" transform="translate(22.413 1.943)" fill="rgba(232,207,117,0.37)"/>
    <path id="Path_17659" data-name="Path 17659" d="M57.749,988.111a7.884,7.884,0,1,1-2.9-10.77A7.913,7.913,0,0,1,57.749,988.111Z" transform="translate(20.673 17.915)" fill="rgba(232,207,117,0.37)"/>
    <path id="Path_17660" data-name="Path 17660" d="M-5.812,984.224H69.423v-3.5H-5.812Z" transform="translate(2.168 19.59)" fill="rgba(232,207,117,0.37)"/>
    <path id="Path_17661" data-name="Path 17661" d="M132.533,1048.234l37.651-65.166-3.032-1.754L129.5,1046.483Z" transform="translate(53.42 19.815)" fill="rgba(232,207,117,0.37)"/>
    <path id="Path_17662" data-name="Path 17662" d="M139.611,1035.363a7.881,7.881,0,1,1-2.9-10.768A7.919,7.919,0,0,1,139.611,1035.363Z" transform="translate(51.679 35.815)" fill="rgba(232,207,117,0.37)"/>
    <path id="Path_17663" data-name="Path 17663" d="M76.049,1031.5h75.235V1028H76.049Z" transform="translate(33.174 37.498)" fill="rgba(232,207,117,0.37)"/>
    <path id="Path_17664" data-name="Path 17664" d="M78.217,1039.341a7.9,7.9,0,1,1,7.894-7.9A7.89,7.89,0,0,1,78.217,1039.341Z" transform="translate(31.005 35.808)" fill="rgba(232,207,117,0.37)"/>
    <path id="Path_17665" data-name="Path 17665" d="M85.266,1048.3l3.033-1.751L50.681,981.364l-3.033,1.751Z" transform="translate(22.417 19.834)" fill="rgba(232,207,117,0.37)"/>
    <path id="Path_17666" data-name="Path 17666" d="M44.091,988.116a7.884,7.884,0,1,1,10.764,2.9A7.865,7.865,0,0,1,44.091,988.116Z" transform="translate(20.668 17.91)" fill="rgba(232,207,117,0.37)"/>
    <path id="Path_17667" data-name="Path 17667" d="M50.669,1001.051l37.64-65.169-3.032-1.752L47.637,999.3Z" transform="translate(22.413 1.943)" fill="rgba(232,207,117,0.37)"/>
    <path id="Path_17668" data-name="Path 17668" d="M71.38,932.942a7.884,7.884,0,1,1,2.9,10.768A7.915,7.915,0,0,1,71.38,932.942Z" transform="translate(31.011 0)" fill="rgba(232,207,117,0.37)"/>
  </g>
</svg>
